<?xml version="1.0" encoding="utf-8"?>
<!-- Generator: Adobe Illustrator 19.0.1, SVG Export Plug-In . SVG Version: 6.00 Build 0)  -->
<svg version="1.1" id="Layer_1" xmlns="http://www.w3.org/2000/svg" xmlns:xlink="http://www.w3.org/1999/xlink" x="0px" y="0px"
	 viewBox="-231 233 36 36" style="enable-background:new -231 233 36 36;" xml:space="preserve">
<style type="text/css">
	.st0{fill:none;}
	.st1{fill:#CCCCCC;}
</style>
<path class="st0" d="M-231,233h36v36h-36V233z"/>
<path class="st1" d="M-198,237.5h-22.5c-1,0-1.8,0.5-2.4,1.3L-231,251l8.1,12.2c0.5,0.8,1.3,1.3,2.4,1.3h22.5c1.6,0,3-1.4,3-3v-21
	C-195,238.9-196.4,237.5-198,237.5z M-202.5,256.4l-2.1,2.1l-5.4-5.4l-5.4,5.4l-2.1-2.1l5.4-5.4l-5.4-5.4l2.1-2.1l5.4,5.4l5.4-5.4
	l2.1,2.1l-5.4,5.4L-202.5,256.4z"/>
</svg>
