<?xml version="1.0" encoding="utf-8"?>
<!-- Generator: Adobe Illustrator 19.0.1, SVG Export Plug-In . SVG Version: 6.00 Build 0)  -->
<svg version="1.1" id="Layer_1" xmlns="http://www.w3.org/2000/svg" xmlns:xlink="http://www.w3.org/1999/xlink" x="0px" y="0px"
	 viewBox="-231 233 36 36" style="enable-background:new -231 233 36 36;" xml:space="preserve">
<style type="text/css">
	.st0{fill:none;}
	.st1{fill:#CCCCCC;}
</style>
<path class="st0" d="M-231,233h36v36h-36V233z"/>
<path class="st1" d="M-222,261.5c0,1.6,1.4,3,3,3h12c1.6,0,3-1.4,3-3v-18h-18V261.5z M-218.3,250.8l2.1-2.1l3.2,3.2l3.2-3.2l2.1,2.1
	l-3.2,3.2l3.2,3.2l-2.1,2.1l-3.2-3.2l-3.2,3.2l-2.1-2.1l3.2-3.2L-218.3,250.8z M-207.8,239l-1.5-1.5h-7.5l-1.5,1.5h-5.2v3h21v-3
	H-207.8z"/>
</svg>
