<?xml version="1.0" encoding="utf-8"?>
<!-- Generator: Adobe Illustrator 19.0.1, SVG Export Plug-In . SVG Version: 6.00 Build 0)  -->
<svg version="1.1" id="Layer_1" xmlns="http://www.w3.org/2000/svg" xmlns:xlink="http://www.w3.org/1999/xlink" x="0px" y="0px"
	 viewBox="0 0 60 60" style="enable-background:new 0 0 60 60;" xml:space="preserve">
<style type="text/css">
	.st0{fill:#6E8E40;}
</style>
<g>
	<g>
		<path class="st0" d="M36.4,30l-0.6,0.2l-0.1,0.4l0.2,0.7l0.4,0.1l0.6-0.1l0.4-0.1l0.1-0.4l0.5-1l0.4,0l0.4-0.5l0.1,0.3l1.2,0.5
			l-0.1,0.2l-0.5,0.1l0.2,0.2l0.3,0l0.3-0.2l-0.1-0.4l0.1-0.1L40.2,30l-0.8-0.3l-0.3-0.5l0.6-0.1l0.2,0.2l0.6,0.4l0.1,0.5l0.6,0.5
			l0.1-0.8l0.3-0.3l0.2,0.6l0.4,0.3l0.5-0.1c-0.1-0.2-0.2-0.4-0.3-0.5L42.2,30l-0.1-0.5c-0.6-0.8-1.2-1.5-1.9-2.2l-0.1,0.3l-0.9,0.1
			l-0.1-0.2l0.5-0.4l-0.1-0.4c-0.4-0.3-0.7-0.6-1.1-0.8l-0.1,0.1l-0.6,0.3l-0.2,0.3l0.1,0.3l0.3,0l0.3,0.5l0.5-0.3l0.2,0.6l-0.2,0
			l-0.5,0L37.8,28l-0.4,0.8L36.8,29l0,0.6l0.3,0l0,0.4L36.4,30z"/>
		<path class="st0" d="M34.1,40.1L33.6,40l-0.4-0.5l-1.2,0.2l-1-0.2l-0.2-0.7l-0.4-0.5l-0.8,0.1l-0.6-0.7l-0.5-0.1l0,0.2L27.7,38
			l-0.4-0.4l-0.9,0l-0.6,0.9l-1.1,0l-0.3-1.2l-0.8,0l0.2-0.6l-0.1-0.3l-0.9,0.8l-0.7,0L22,36.7l0.1-0.5l0.3-0.7l0.8-0.5l1.6-0.3
			l0.1,0.5l0.6,0.2l-0.2-0.8l0.3-0.5l0.7-0.7l0-0.4l0.7-1l0.8-0.6l-0.1-0.1l0.5-0.7l0.2,0l0.1,0.1l0.2-0.3l0.1,0l-0.3,0l-0.3,0
			l0-0.2l0.1-0.1l0.3,0l0.1,0l0.2,0.2l0.1,0l0,0l0,0l0.4-0.1l0-0.2l0.2,0l0,0.2l-0.2,0.2l0.1,0.2l0.8,0.1l0,0l0.2,0l0-0.3l-0.6-0.2
			l-0.1-0.2l0.5-0.2l-0.1-0.5L29.7,29l-0.2-0.8l-0.6,0.5l-0.3,0l0-0.6l-1-0.1l-0.4,0.4l0.1,0.9l-0.7,0.3l-0.2,0.6l-0.3,0.1l-0.1-0.8
			l-0.7,0L25,29.4l-0.2-0.5l1.1-0.9l0.6-0.3l0.1,0.4l0.3-0.1l0-0.2l0.3-0.1l0-0.1l-0.2,0L27,27.5l0.4-0.1l0.2-0.3l0,0l0,0l0.1-0.1
			l0.9-0.3L29,27l-0.9,0.7l1.3,0.1l0.1-0.5l0.6-0.1l0.1-0.4l-0.4,0l-0.1-0.5L28.4,26l-0.9,0.2l-0.4,0.3l0.1,0.6l-0.5,0l-0.1-0.3
			l0.4-0.5l-0.9,0.1l-0.2,0.1l-0.1,0.3l0.3,0l0,0.3l-0.6,0.1l-0.1,0.2l-0.8,0.2c0,0-0.1-0.5-0.1-0.5c0,0,0.6-0.1,0.6-0.1l0.4-0.6
			l-0.3-0.1L25,26.9l-0.6,0.1L24,26.5l-0.8,0.1l-0.7,0.7l0.7-0.1l0.1,0.2l-0.2,0.2l0.8-0.1l0.2,0.3l-0.9,0.1l-0.1-0.2l-0.6,0
			l-0.3-0.1l-0.4,0.1c-1.9,1.8-3.2,4.2-3.8,6.8l0,0.3l0.6,0.2l0.2,1.1l0.7,0.8l0.4,0l0-0.3l-0.6-0.7L19.2,35l0.3,0l0.3,0.8l0.9,1
			l-0.1,0.4l0.6,0.6l1.2,0.1l0-0.2l0.5,0l0,0.3l0.4,0l0.6,0.1l0.9,0.8l1-0.1l0.2,0.8l-0.6,0.6l0.1,0.8l0,0.5l1.2,1.1l0.1,0.4
			c0,0,0.4,0,0.4,0c0,0,0.9,0.5,0.9,0.5l0.4,2.3l0.3,0l0,1.1l0.6,0.6l0.1,1.1l0.8,1l0.9,0.6l0.8-0.1l0-0.3l-0.7-0.4l0-0.2l0.1-0.3
			l0-0.3l-0.4,0.1l-0.2-0.2l0.3-0.4l0-0.2l-0.4,0l0-0.2l0.5-0.2l0.7-0.5l0.2-0.5l0.7-1.2l-0.3-0.8l0.2-0.5l0.8-0.1l0.5-0.5l-0.1-1.6
			l0.5-0.8L34.1,40.1z M24.6,32.4l-0.3-0.1l0-0.3l0.3-0.4l0.4-0.1L24.6,32.4z M25.6,32.4l-0.4,0.1l0-0.3l0.2-0.1l0-0.1l0.3-0.1
			l0,0.3L25.6,32.4z M26.1,31.3l0.2,0.1l-0.1,0.2L26,31.4L26.1,31.3z M25.9,31.6l0.5,0.1l0,0.3L26.1,32l-0.1-0.2L25.9,31.6
			L25.9,31.6z M25.7,31.2l-0.3,0.1L25.4,31L25.7,31.2z M25.7,31.4l0,0.3l-0.2,0.2l-0.2,0.1l-0.1-0.4L25.7,31.4z M24.3,31.2l0.4-0.2
			l0.5-0.1l0,0.2l0.1,0l0,0.3l-0.8,0.1l-0.3,0L24.3,31.2z M23.6,30.1l0.3,0l0,0.4l-0.3,0.2l-0.3-0.4L23.6,30.1z M21.7,28.3
			L21.7,28.3l0.3-0.1l0-0.1l0.5-0.1l0,0.2l-0.1,0.2l-0.7,0.1L21.7,28.3z M22.3,28.9c0,0,0.3-0.1,0.3-0.1c0,0,0,0.3,0,0.3L22,29.2
			l-0.1-0.1L22.3,28.9z"/>
		<path class="st0" d="M34.7,34.7l0.3,0l0,0.4l-0.2,0.1l0.2,1.1l1.5,1.3l0.6-0.1l0-0.1l1-0.2l0.2-0.3l0.6-0.1l0.4,0.3l0.9,0l0.1,1.1
			l1.2,1.5l-0.3,1l0.1,0.4l0.5,0.3l0.2,1.1l0.6,0.6l0.1,0.9l0.2,0c1.5-2.6,2.2-5.7,1.7-8.9c-0.2-1.3-0.6-2.5-1.1-3.6l-1,0.2
			l-0.7-0.4l-0.7,0.2l0.1,0.4l-0.2,0l-0.3-0.1l-1.2-0.1l-0.1-0.8l-1.5,0.4l-0.4,0.3l-0.6,0.1l-0.3,0l-0.7,0.5l0.1,0.8l-1.3,1.3
			L34.7,34.7z"/>
		<path class="st0" d="M36.6,13.1c-1.9,0.5-6.2,3.7-6.2,3.7c3.1,0.6,7.2-1.1,9.3-3c2.5-2.3,5.5-4.3,9.5-5c-1.8,0.4-4.8-0.2-6.7-0.3
			c-1.9,0-4.8,0.3-7.5,1.5c-3,1.3-5.7,4.4-5,5.9C31.6,14.7,34.8,13.1,36.6,13.1"/>
		<path class="st0" d="M27.4,18.1l-0.3,0.1c-1.8-0.2-4.7-1.1-6.6-0.7c1.6-0.7,5-0.6,6.9-0.3c-0.1-1.6-4.6-2.9-6.8-3
			C17.8,14,15.5,15,13.5,16c-1.7,0.7-3.9,2.6-5.7,3c3.7-1,7,0.3,10.3,0.4C20.9,19.6,25,19.9,27.4,18.1"/>
		<path class="st0" d="M45.8,36.3c0-0.3-0.1-0.6-0.1-0.9c-0.3-2.5-1.2-4.7-2.4-6.5c-1.2-1.8-2.7-3.1-4.2-4.1
			c-1.5-0.9-2.9-1.4-4.1-1.8c-1.2-0.3-2.2-0.4-2.9-0.4c-0.7,0-1,0-1,0s0.4,0,1,0c0.7,0.1,1.6,0.2,2.8,0.5c1.2,0.4,2.6,0.9,4,1.9
			c1.4,0.9,2.8,2.3,4,4.1c1.1,1.7,2,3.9,2.2,6.3c0,0,0,0,0,0c0,0.5,0,1.3,0.1,1.8l0,0.5l-0.1,0.5c0,0.3-0.1,0.6-0.1,0.9
			c-0.1,0.3-0.1,0.6-0.2,0.9l-0.1,0.5l-0.1,0.5c-0.2,0.5-0.5,1.3-0.7,1.8c0,0,0,0,0,0c-0.5,1.2-1.2,2.3-2.1,3.3
			c-0.9,1-1.9,1.9-3.1,2.6c-2.3,1.5-5.1,2.2-7.8,2.1c-0.3,0-0.7-0.1-1-0.1c-0.3,0-0.7-0.1-1-0.1l-1-0.2l-1-0.3
			c-0.3-0.1-0.6-0.2-1-0.4c-0.3-0.1-0.6-0.2-0.9-0.4l-0.9-0.5l-0.8-0.6c-2.2-1.6-3.9-3.8-4.8-6.2c-0.4-1.2-0.8-2.5-0.9-3.7
			c-0.1-0.6,0-1.2-0.1-1.8c0-0.3,0.1-0.6,0.1-0.9c0-0.3,0-0.6,0.1-0.9c0.4-2.4,1.4-4.5,2.7-6.1c0.3-0.4,0.7-0.8,1-1.2
			c0.2-0.2,0.4-0.3,0.5-0.5c0.1-0.1,0.3-0.3,0.4-0.4c0.8-0.7,1.5-1.4,2.2-2c1.2-1.2,2.2-2.4,2.9-3.4c0.2-0.3,0.3-0.5,0.4-0.8
			c0.1-0.2,0.2-0.4,0.2-0.7c0.1-0.2,0.2-0.4,0.3-0.7c0.1-0.1,0.1-0.3,0.2-0.4c0.1-0.1,0.1-0.3,0.2-0.4c0.1-0.1,0.2-0.3,0.2-0.4
			c0.1-0.1,0.2-0.2,0.3-0.4c0.1-0.1,0.2-0.2,0.3-0.3c0.1-0.1,0.2-0.2,0.3-0.3c0.1-0.1,0.2-0.1,0.2-0.2c0.1-0.1,0.1-0.1,0.2-0.2
			c0.1-0.1,0.2-0.1,0.2-0.1l-0.2,0.1c-0.1,0-0.1,0.1-0.2,0.1c-0.1,0.1-0.2,0.1-0.3,0.2c-0.1,0.1-0.2,0.2-0.3,0.3
			c-0.1,0.1-0.2,0.2-0.3,0.3c-0.1,0.1-0.2,0.2-0.3,0.4c-0.1,0.1-0.2,0.3-0.3,0.4c-0.1,0.1-0.2,0.3-0.2,0.4c-0.1,0.1-0.1,0.3-0.2,0.4
			c-0.1,0.1-0.1,0.3-0.2,0.4c0,0,0-0.1,0-0.1c0-0.1,0.1-0.2,0-0.3c0-0.2,0-0.4-0.1-0.6c-0.2-0.3-0.4-0.4-0.6-0.5c-0.1,0-0.1,0-0.2,0
			c0,0-0.1,0-0.1,0s0,0,0.1,0c0,0,0.1,0,0.2,0c0.2,0,0.4,0.2,0.5,0.5c0.1,0.2,0.1,0.3,0.1,0.5c0,0.1,0,0.2-0.1,0.3
			c0,0.1,0,0.2-0.1,0.3c-0.1,0.2-0.2,0.5-0.3,0.7c-0.1,0.2-0.3,0.5-0.4,0.7c-0.7,1-1.7,2.1-3,3.3c-0.7,0.6-1.3,1.2-2.1,1.8
			c-0.2,0.1-0.4,0.3-0.6,0.5c-0.2,0.2-0.4,0.3-0.6,0.5c-0.3,0.4-0.7,0.8-1,1.2c-1.4,1.7-2.4,3.9-2.9,6.3c-0.1,0.3-0.1,0.6-0.1,0.9
			c0,0.3-0.1,0.6-0.1,0.9c0,0.6-0.1,1.3,0,1.9c0.1,1.3,0.4,2.6,0.9,3.9c1,2.5,2.7,4.9,5,6.6l0.9,0.6l0.9,0.5c0.3,0.2,0.7,0.3,1,0.5
			c0.3,0.1,0.7,0.3,1,0.4l1,0.3c0.4,0.1,0.7,0.2,1.1,0.2c0.3,0.1,0.6,0.1,0.9,0.1l0.7,0.1c0.2,0,0.4,0,0.5,0
			c2.9,0.1,5.8-0.7,8.2-2.3c1.2-0.8,2.3-1.7,3.2-2.8c1-1.1,1.8-2.4,2.4-3.8c0.1-0.3,0.3-0.9,0.5-1.3c0-0.1,0.1-0.2,0.1-0.3l0.1-0.5
			l0.1-0.5c0.1-0.5,0.2-1.3,0.3-1.9c0,0,0-0.1,0-0.1l0-0.5l0-0.5C45.8,36.9,45.8,36.6,45.8,36.3"/>
	</g>
</g>
</svg>
